<svg xmlns="http://www.w3.org/2000/svg" xmlns:xlink="http://www.w3.org/1999/xlink" width="480" zoomAndPan="magnify" viewBox="0 0 360 179.999997" height="240" preserveAspectRatio="xMidYMid meet" version="1.0"><defs><g/><clipPath id="d91ad7c240"><path d="M 95.542969 31.84375 L 123.113281 31.84375 L 123.113281 148.257812 L 95.542969 148.257812 Z M 95.542969 31.84375 " clip-rule="nonzero"/></clipPath><clipPath id="16e3d8523e"><path d="M 123.113281 50.222656 L 123.113281 148.152344 L 95.542969 129.769531 L 95.542969 31.84375 Z M 123.113281 50.222656 " clip-rule="nonzero"/></clipPath><clipPath id="82a3fa92bb"><path d="M 56.628906 9.046875 L 84.195312 9.046875 L 84.195312 171 L 56.628906 171 Z M 56.628906 9.046875 " clip-rule="nonzero"/></clipPath><clipPath id="bc9ff15f34"><path d="M 84.195312 27.429688 L 84.195312 170.953125 L 56.628906 152.574219 L 56.628906 9.046875 Z M 84.195312 27.429688 " clip-rule="nonzero"/></clipPath><clipPath id="ab739d5548"><path d="M 17.71875 31.84375 L 45.289062 31.84375 L 45.289062 148.257812 L 17.71875 148.257812 Z M 17.71875 31.84375 " clip-rule="nonzero"/></clipPath><clipPath id="f88f7471c8"><path d="M 45.289062 50.222656 L 45.289062 148.152344 L 17.71875 129.769531 L 17.71875 31.84375 Z M 45.289062 50.222656 " clip-rule="nonzero"/></clipPath></defs><g fill="#7f886b" fill-opacity="1"><g transform="translate(177.044196, 87.815764)"><g><path d="M 18.078125 -11.015625 C 19.285156 -10.640625 20.234375 -10 20.921875 -9.09375 C 21.609375 -8.195312 21.953125 -7.09375 21.953125 -5.78125 C 21.953125 -3.925781 21.226562 -2.5 19.78125 -1.5 C 18.34375 -0.5 16.238281 0 13.46875 0 L 2.515625 0 L 2.515625 -21.203125 L 12.875 -21.203125 C 15.457031 -21.203125 17.4375 -20.707031 18.8125 -19.71875 C 20.195312 -18.726562 20.890625 -17.382812 20.890625 -15.6875 C 20.890625 -14.65625 20.640625 -13.734375 20.140625 -12.921875 C 19.648438 -12.117188 18.960938 -11.484375 18.078125 -11.015625 Z M 7.390625 -17.5 L 7.390625 -12.5 L 12.265625 -12.5 C 13.472656 -12.5 14.390625 -12.710938 15.015625 -13.140625 C 15.640625 -13.566406 15.953125 -14.191406 15.953125 -15.015625 C 15.953125 -15.847656 15.640625 -16.46875 15.015625 -16.875 C 14.390625 -17.289062 13.472656 -17.5 12.265625 -17.5 Z M 13.109375 -3.6875 C 14.398438 -3.6875 15.375 -3.898438 16.03125 -4.328125 C 16.6875 -4.753906 17.015625 -5.410156 17.015625 -6.296875 C 17.015625 -8.054688 15.710938 -8.9375 13.109375 -8.9375 L 7.390625 -8.9375 L 7.390625 -3.6875 Z M 13.109375 -3.6875 "/></g></g></g><g fill="#7f886b" fill-opacity="1"><g transform="translate(200.21405, 87.815764)"><g/></g></g><g fill="#7f886b" fill-opacity="1"><g transform="translate(208.785378, 87.815764)"><g><path d="M 16.46875 -4.546875 L 6.625 -4.546875 L 4.75 0 L -0.265625 0 L 9.171875 -21.203125 L 14.015625 -21.203125 L 23.5 0 L 18.34375 0 Z M 14.921875 -8.265625 L 11.5625 -16.375 L 8.203125 -8.265625 Z M 14.921875 -8.265625 "/></g></g></g><g fill="#7f886b" fill-opacity="1"><g transform="translate(231.985515, 87.815764)"><g/></g></g><g fill="#7f886b" fill-opacity="1"><g transform="translate(240.556843, 87.815764)"><g><path d="M 12.6875 -7.515625 L 12.6875 0 L 7.78125 0 L 7.78125 -7.578125 L -0.421875 -21.203125 L 4.78125 -21.203125 L 10.453125 -11.78125 L 16.109375 -21.203125 L 20.921875 -21.203125 Z M 12.6875 -7.515625 "/></g></g></g><g fill="#7f886b" fill-opacity="1"><g transform="translate(261.031114, 87.815764)"><g/></g></g><g fill="#7f886b" fill-opacity="1"><g transform="translate(269.602442, 87.815764)"><g><path d="M 6.90625 -17.203125 L 0.125 -17.203125 L 0.125 -21.203125 L 18.59375 -21.203125 L 18.59375 -17.203125 L 11.8125 -17.203125 L 11.8125 0 L 6.90625 0 Z M 6.90625 -17.203125 "/></g></g></g><g fill="#7f886b" fill-opacity="1"><g transform="translate(134.838919, 104.787693)"><g><path d="M 1.25 -10.59375 L 6.078125 -10.59375 C 7.222656 -10.59375 8.238281 -10.375 9.125 -9.9375 C 10.007812 -9.5 10.695312 -8.878906 11.1875 -8.078125 C 11.675781 -7.285156 11.921875 -6.359375 11.921875 -5.296875 C 11.921875 -4.234375 11.675781 -3.300781 11.1875 -2.5 C 10.695312 -1.707031 10.007812 -1.09375 9.125 -0.65625 C 8.238281 -0.21875 7.222656 0 6.078125 0 L 1.25 0 Z M 5.953125 -2.015625 C 7.015625 -2.015625 7.859375 -2.304688 8.484375 -2.890625 C 9.117188 -3.484375 9.4375 -4.285156 9.4375 -5.296875 C 9.4375 -6.304688 9.117188 -7.101562 8.484375 -7.6875 C 7.859375 -8.28125 7.015625 -8.578125 5.953125 -8.578125 L 3.703125 -8.578125 L 3.703125 -2.015625 Z M 5.953125 -2.015625 "/></g></g></g><g fill="#7f886b" fill-opacity="1"><g transform="translate(152.476758, 104.787693)"><g><path d="M 9.46875 -1.96875 L 9.46875 0 L 1.25 0 L 1.25 -10.59375 L 9.265625 -10.59375 L 9.265625 -8.625 L 3.6875 -8.625 L 3.6875 -6.328125 L 8.609375 -6.328125 L 8.609375 -4.421875 L 3.6875 -4.421875 L 3.6875 -1.96875 Z M 9.46875 -1.96875 "/></g></g></g><g fill="#7f886b" fill-opacity="1"><g transform="translate(167.768311, 104.787693)"><g><path d="M 4.734375 0.1875 C 3.898438 0.1875 3.09375 0.0703125 2.3125 -0.15625 C 1.53125 -0.382812 0.898438 -0.679688 0.421875 -1.046875 L 1.25 -2.890625 C 1.707031 -2.554688 2.25 -2.285156 2.875 -2.078125 C 3.5 -1.878906 4.125 -1.78125 4.75 -1.78125 C 5.445312 -1.78125 5.960938 -1.882812 6.296875 -2.09375 C 6.628906 -2.300781 6.796875 -2.578125 6.796875 -2.921875 C 6.796875 -3.171875 6.695312 -3.378906 6.5 -3.546875 C 6.300781 -3.710938 6.046875 -3.847656 5.734375 -3.953125 C 5.429688 -4.054688 5.019531 -4.164062 4.5 -4.28125 C 3.6875 -4.476562 3.019531 -4.671875 2.5 -4.859375 C 1.988281 -5.046875 1.550781 -5.351562 1.1875 -5.78125 C 0.820312 -6.207031 0.640625 -6.773438 0.640625 -7.484375 C 0.640625 -8.097656 0.804688 -8.65625 1.140625 -9.15625 C 1.472656 -9.65625 1.972656 -10.050781 2.640625 -10.34375 C 3.316406 -10.632812 4.140625 -10.78125 5.109375 -10.78125 C 5.773438 -10.78125 6.429688 -10.695312 7.078125 -10.53125 C 7.734375 -10.375 8.300781 -10.144531 8.78125 -9.84375 L 8.03125 -7.984375 C 7.050781 -8.535156 6.070312 -8.8125 5.09375 -8.8125 C 4.40625 -8.8125 3.894531 -8.695312 3.5625 -8.46875 C 3.238281 -8.25 3.078125 -7.957031 3.078125 -7.59375 C 3.078125 -7.238281 3.265625 -6.972656 3.640625 -6.796875 C 4.015625 -6.617188 4.59375 -6.441406 5.375 -6.265625 C 6.1875 -6.078125 6.847656 -5.882812 7.359375 -5.6875 C 7.867188 -5.5 8.304688 -5.195312 8.671875 -4.78125 C 9.046875 -4.363281 9.234375 -3.804688 9.234375 -3.109375 C 9.234375 -2.503906 9.0625 -1.953125 8.71875 -1.453125 C 8.382812 -0.953125 7.878906 -0.550781 7.203125 -0.25 C 6.523438 0.0390625 5.703125 0.1875 4.734375 0.1875 Z M 4.734375 0.1875 "/></g></g></g><g fill="#7f886b" fill-opacity="1"><g transform="translate(182.560341, 104.787693)"><g><path d="M 1.25 -10.59375 L 3.703125 -10.59375 L 3.703125 0 L 1.25 0 Z M 1.25 -10.59375 "/></g></g></g><g fill="#7f886b" fill-opacity="1"><g transform="translate(192.659797, 104.787693)"><g><path d="M 8.421875 -5.46875 L 10.65625 -5.46875 L 10.65625 -1.171875 C 10.082031 -0.734375 9.414062 -0.394531 8.65625 -0.15625 C 7.90625 0.0703125 7.144531 0.1875 6.375 0.1875 C 5.269531 0.1875 4.28125 -0.046875 3.40625 -0.515625 C 2.53125 -0.984375 1.84375 -1.632812 1.34375 -2.46875 C 0.84375 -3.300781 0.59375 -4.242188 0.59375 -5.296875 C 0.59375 -6.347656 0.84375 -7.289062 1.34375 -8.125 C 1.84375 -8.957031 2.535156 -9.609375 3.421875 -10.078125 C 4.304688 -10.546875 5.304688 -10.78125 6.421875 -10.78125 C 7.347656 -10.78125 8.1875 -10.625 8.9375 -10.3125 C 9.695312 -10 10.335938 -9.546875 10.859375 -8.953125 L 9.28125 -7.5 C 8.519531 -8.289062 7.609375 -8.6875 6.546875 -8.6875 C 5.867188 -8.6875 5.265625 -8.546875 4.734375 -8.265625 C 4.210938 -7.984375 3.804688 -7.582031 3.515625 -7.0625 C 3.222656 -6.550781 3.078125 -5.960938 3.078125 -5.296875 C 3.078125 -4.640625 3.222656 -4.050781 3.515625 -3.53125 C 3.804688 -3.019531 4.210938 -2.617188 4.734375 -2.328125 C 5.253906 -2.046875 5.847656 -1.90625 6.515625 -1.90625 C 7.210938 -1.90625 7.847656 -2.054688 8.421875 -2.359375 Z M 8.421875 -5.46875 "/></g></g></g><g fill="#7f886b" fill-opacity="1"><g transform="translate(209.465085, 104.787693)"><g><path d="M 10.984375 -10.59375 L 10.984375 0 L 8.96875 0 L 3.671875 -6.4375 L 3.671875 0 L 1.25 0 L 1.25 -10.59375 L 3.28125 -10.59375 L 8.546875 -4.15625 L 8.546875 -10.59375 Z M 10.984375 -10.59375 "/></g></g></g><g fill="#7f886b" fill-opacity="1"><g transform="translate(226.830451, 104.787693)"><g/></g></g><g fill="#7f886b" fill-opacity="1"><g transform="translate(236.248735, 104.787693)"><g><path d="M 8.140625 -4.375 L 5.515625 -4.375 L 5.515625 -1.796875 L 3.5625 -1.796875 L 3.5625 -4.375 L 0.9375 -4.375 L 0.9375 -6.21875 L 3.5625 -6.21875 L 3.5625 -8.796875 L 5.515625 -8.796875 L 5.515625 -6.21875 L 8.140625 -6.21875 Z M 8.140625 -4.375 "/></g></g></g><g fill="#7f886b" fill-opacity="1"><g transform="translate(250.450404, 104.787693)"><g/></g></g><g fill="#7f886b" fill-opacity="1"><g transform="translate(259.868694, 104.787693)"><g><path d="M 9.03125 -5.515625 C 9.644531 -5.316406 10.125 -4.992188 10.46875 -4.546875 C 10.8125 -4.097656 10.984375 -3.546875 10.984375 -2.890625 C 10.984375 -1.960938 10.617188 -1.25 9.890625 -0.75 C 9.171875 -0.25 8.117188 0 6.734375 0 L 1.25 0 L 1.25 -10.59375 L 6.4375 -10.59375 C 7.726562 -10.59375 8.71875 -10.34375 9.40625 -9.84375 C 10.101562 -9.351562 10.453125 -8.6875 10.453125 -7.84375 C 10.453125 -7.332031 10.328125 -6.875 10.078125 -6.46875 C 9.828125 -6.0625 9.476562 -5.742188 9.03125 -5.515625 Z M 3.6875 -8.75 L 3.6875 -6.25 L 6.125 -6.25 C 6.738281 -6.25 7.203125 -6.351562 7.515625 -6.5625 C 7.828125 -6.78125 7.984375 -7.097656 7.984375 -7.515625 C 7.984375 -7.921875 7.828125 -8.226562 7.515625 -8.4375 C 7.203125 -8.644531 6.738281 -8.75 6.125 -8.75 Z M 6.5625 -1.84375 C 7.207031 -1.84375 7.691406 -1.945312 8.015625 -2.15625 C 8.347656 -2.375 8.515625 -2.707031 8.515625 -3.15625 C 8.515625 -4.03125 7.863281 -4.46875 6.5625 -4.46875 L 3.6875 -4.46875 L 3.6875 -1.84375 Z M 6.5625 -1.84375 "/></g></g></g><g fill="#7f886b" fill-opacity="1"><g transform="translate(276.583152, 104.787693)"><g><path d="M 5.96875 0.1875 C 4.445312 0.1875 3.265625 -0.226562 2.421875 -1.0625 C 1.585938 -1.90625 1.171875 -3.101562 1.171875 -4.65625 L 1.171875 -10.59375 L 3.625 -10.59375 L 3.625 -4.75 C 3.625 -2.851562 4.410156 -1.90625 5.984375 -1.90625 C 6.742188 -1.90625 7.328125 -2.132812 7.734375 -2.59375 C 8.140625 -3.050781 8.34375 -3.769531 8.34375 -4.75 L 8.34375 -10.59375 L 10.765625 -10.59375 L 10.765625 -4.65625 C 10.765625 -3.101562 10.34375 -1.90625 9.5 -1.0625 C 8.65625 -0.226562 7.476562 0.1875 5.96875 0.1875 Z M 5.96875 0.1875 "/></g></g></g><g fill="#7f886b" fill-opacity="1"><g transform="translate(293.645779, 104.787693)"><g><path d="M 1.25 -10.59375 L 3.703125 -10.59375 L 3.703125 0 L 1.25 0 Z M 1.25 -10.59375 "/></g></g></g><g fill="#7f886b" fill-opacity="1"><g transform="translate(303.745241, 104.787693)"><g><path d="M 1.25 -10.59375 L 3.703125 -10.59375 L 3.703125 -2 L 9.03125 -2 L 9.03125 0 L 1.25 0 Z M 1.25 -10.59375 "/></g></g></g><g fill="#7f886b" fill-opacity="1"><g transform="translate(318.022588, 104.787693)"><g><path d="M 1.25 -10.59375 L 6.078125 -10.59375 C 7.222656 -10.59375 8.238281 -10.375 9.125 -9.9375 C 10.007812 -9.5 10.695312 -8.878906 11.1875 -8.078125 C 11.675781 -7.285156 11.921875 -6.359375 11.921875 -5.296875 C 11.921875 -4.234375 11.675781 -3.300781 11.1875 -2.5 C 10.695312 -1.707031 10.007812 -1.09375 9.125 -0.65625 C 8.238281 -0.21875 7.222656 0 6.078125 0 L 1.25 0 Z M 5.953125 -2.015625 C 7.015625 -2.015625 7.859375 -2.304688 8.484375 -2.890625 C 9.117188 -3.484375 9.4375 -4.285156 9.4375 -5.296875 C 9.4375 -6.304688 9.117188 -7.101562 8.484375 -7.6875 C 7.859375 -8.28125 7.015625 -8.578125 5.953125 -8.578125 L 3.703125 -8.578125 L 3.703125 -2.015625 Z M 5.953125 -2.015625 "/></g></g></g><g clip-path="url(#d91ad7c240)"><g clip-path="url(#16e3d8523e)"><path fill="#f0ac95" d="M 123.113281 31.84375 L 123.113281 148.148438 L 95.542969 148.148438 L 95.542969 31.84375 Z M 123.113281 31.84375 " fill-opacity="1" fill-rule="nonzero"/></g></g><g clip-path="url(#82a3fa92bb)"><g clip-path="url(#bc9ff15f34)"><path fill="#7f886b" d="M 84.195312 9.046875 L 84.195312 170.910156 L 56.628906 170.910156 L 56.628906 9.046875 Z M 84.195312 9.046875 " fill-opacity="1" fill-rule="nonzero"/></g></g><g clip-path="url(#ab739d5548)"><g clip-path="url(#f88f7471c8)"><path fill="#f0ac95" d="M 45.289062 31.84375 L 45.289062 148.148438 L 17.71875 148.148438 L 17.71875 31.84375 Z M 45.289062 31.84375 " fill-opacity="1" fill-rule="nonzero"/></g></g><g fill="#7f886b" fill-opacity="1"><g transform="translate(165.027893, 129.07499)"><g><path d="M 5.8125 -3.546875 C 6.195312 -3.421875 6.5 -3.210938 6.71875 -2.921875 C 6.945312 -2.628906 7.0625 -2.273438 7.0625 -1.859375 C 7.0625 -1.265625 6.828125 -0.804688 6.359375 -0.484375 C 5.898438 -0.160156 5.222656 0 4.328125 0 L 0.8125 0 L 0.8125 -6.8125 L 4.140625 -6.8125 C 4.972656 -6.8125 5.609375 -6.648438 6.046875 -6.328125 C 6.492188 -6.015625 6.71875 -5.585938 6.71875 -5.046875 C 6.71875 -4.710938 6.632812 -4.414062 6.46875 -4.15625 C 6.3125 -3.894531 6.09375 -3.691406 5.8125 -3.546875 Z M 2.375 -5.625 L 2.375 -4.015625 L 3.9375 -4.015625 C 4.332031 -4.015625 4.628906 -4.082031 4.828125 -4.21875 C 5.023438 -4.351562 5.125 -4.554688 5.125 -4.828125 C 5.125 -5.097656 5.023438 -5.296875 4.828125 -5.421875 C 4.628906 -5.554688 4.332031 -5.625 3.9375 -5.625 Z M 4.21875 -1.1875 C 4.632812 -1.1875 4.945312 -1.253906 5.15625 -1.390625 C 5.363281 -1.523438 5.46875 -1.738281 5.46875 -2.03125 C 5.46875 -2.59375 5.050781 -2.875 4.21875 -2.875 L 2.375 -2.875 L 2.375 -1.1875 Z M 4.21875 -1.1875 "/></g></g></g><g fill="#7f886b" fill-opacity="1"><g transform="translate(175.777166, 129.07499)"><g><path d="M 3.828125 0.109375 C 2.859375 0.109375 2.101562 -0.15625 1.5625 -0.6875 C 1.019531 -1.226562 0.75 -2 0.75 -3 L 0.75 -6.8125 L 2.328125 -6.8125 L 2.328125 -3.0625 C 2.328125 -1.832031 2.832031 -1.21875 3.84375 -1.21875 C 4.332031 -1.21875 4.707031 -1.363281 4.96875 -1.65625 C 5.226562 -1.957031 5.359375 -2.425781 5.359375 -3.0625 L 5.359375 -6.8125 L 6.921875 -6.8125 L 6.921875 -3 C 6.921875 -2 6.648438 -1.226562 6.109375 -0.6875 C 5.566406 -0.15625 4.804688 0.109375 3.828125 0.109375 Z M 3.828125 0.109375 "/></g></g></g><g fill="#7f886b" fill-opacity="1"><g transform="translate(186.750381, 129.07499)"><g><path d="M 0.8125 -6.8125 L 2.390625 -6.8125 L 2.390625 0 L 0.8125 0 Z M 0.8125 -6.8125 "/></g></g></g><g fill="#7f886b" fill-opacity="1"><g transform="translate(193.244748, 129.07499)"><g><path d="M 0.8125 -6.8125 L 2.390625 -6.8125 L 2.390625 -1.28125 L 5.796875 -1.28125 L 5.796875 0 L 0.8125 0 Z M 0.8125 -6.8125 "/></g></g></g><g fill="#7f886b" fill-opacity="1"><g transform="translate(202.426419, 129.07499)"><g><path d="M 2.21875 -5.53125 L 0.03125 -5.53125 L 0.03125 -6.8125 L 5.984375 -6.8125 L 5.984375 -5.53125 L 3.796875 -5.53125 L 3.796875 0 L 2.21875 0 Z M 2.21875 -5.53125 "/></g></g></g><g fill="#7f886b" fill-opacity="1"><g transform="translate(211.744401, 129.07499)"><g/></g></g><g fill="#7f886b" fill-opacity="1"><g transform="translate(217.800619, 129.07499)"><g><path d="M 5.8125 -3.546875 C 6.195312 -3.421875 6.5 -3.210938 6.71875 -2.921875 C 6.945312 -2.628906 7.0625 -2.273438 7.0625 -1.859375 C 7.0625 -1.265625 6.828125 -0.804688 6.359375 -0.484375 C 5.898438 -0.160156 5.222656 0 4.328125 0 L 0.8125 0 L 0.8125 -6.8125 L 4.140625 -6.8125 C 4.972656 -6.8125 5.609375 -6.648438 6.046875 -6.328125 C 6.492188 -6.015625 6.71875 -5.585938 6.71875 -5.046875 C 6.71875 -4.710938 6.632812 -4.414062 6.46875 -4.15625 C 6.3125 -3.894531 6.09375 -3.691406 5.8125 -3.546875 Z M 2.375 -5.625 L 2.375 -4.015625 L 3.9375 -4.015625 C 4.332031 -4.015625 4.628906 -4.082031 4.828125 -4.21875 C 5.023438 -4.351562 5.125 -4.554688 5.125 -4.828125 C 5.125 -5.097656 5.023438 -5.296875 4.828125 -5.421875 C 4.628906 -5.554688 4.332031 -5.625 3.9375 -5.625 Z M 4.21875 -1.1875 C 4.632812 -1.1875 4.945312 -1.253906 5.15625 -1.390625 C 5.363281 -1.523438 5.46875 -1.738281 5.46875 -2.03125 C 5.46875 -2.59375 5.050781 -2.875 4.21875 -2.875 L 2.375 -2.875 L 2.375 -1.1875 Z M 4.21875 -1.1875 "/></g></g></g><g fill="#7f886b" fill-opacity="1"><g transform="translate(228.549893, 129.07499)"><g><path d="M 4.078125 -2.421875 L 4.078125 0 L 2.5 0 L 2.5 -2.4375 L -0.140625 -6.8125 L 1.53125 -6.8125 L 3.359375 -3.78125 L 5.171875 -6.8125 L 6.71875 -6.8125 Z M 4.078125 -2.421875 "/></g></g></g><g fill="#7f886b" fill-opacity="1"><g transform="translate(238.432607, 129.07499)"><g/></g></g><g fill="#7f886b" fill-opacity="1"><g transform="translate(244.488826, 129.07499)"><g><path d="M 0.8125 -6.8125 L 3.90625 -6.8125 C 4.644531 -6.8125 5.296875 -6.671875 5.859375 -6.390625 C 6.429688 -6.109375 6.875 -5.707031 7.1875 -5.1875 C 7.5 -4.675781 7.65625 -4.082031 7.65625 -3.40625 C 7.65625 -2.726562 7.5 -2.128906 7.1875 -1.609375 C 6.875 -1.097656 6.429688 -0.703125 5.859375 -0.421875 C 5.296875 -0.140625 4.644531 0 3.90625 0 L 0.8125 0 Z M 3.828125 -1.296875 C 4.503906 -1.296875 5.046875 -1.484375 5.453125 -1.859375 C 5.859375 -2.242188 6.0625 -2.757812 6.0625 -3.40625 C 6.0625 -4.050781 5.859375 -4.5625 5.453125 -4.9375 C 5.046875 -5.320312 4.503906 -5.515625 3.828125 -5.515625 L 2.390625 -5.515625 L 2.390625 -1.296875 Z M 3.828125 -1.296875 "/></g></g></g><g fill="#7f886b" fill-opacity="1"><g transform="translate(255.832026, 129.07499)"><g><path d="M 6.078125 -1.265625 L 6.078125 0 L 0.8125 0 L 0.8125 -6.8125 L 5.953125 -6.8125 L 5.953125 -5.546875 L 2.375 -5.546875 L 2.375 -4.0625 L 5.53125 -4.0625 L 5.53125 -2.84375 L 2.375 -2.84375 L 2.375 -1.265625 Z M 6.078125 -1.265625 "/></g></g></g><g fill="#7f886b" fill-opacity="1"><g transform="translate(265.666059, 129.07499)"><g><path d="M 3.046875 0.109375 C 2.503906 0.109375 1.984375 0.0351562 1.484375 -0.109375 C 0.984375 -0.253906 0.578125 -0.441406 0.265625 -0.671875 L 0.8125 -1.859375 C 1.101562 -1.640625 1.445312 -1.46875 1.84375 -1.34375 C 2.25 -1.21875 2.65625 -1.15625 3.0625 -1.15625 C 3.507812 -1.15625 3.835938 -1.21875 4.046875 -1.34375 C 4.265625 -1.476562 4.375 -1.65625 4.375 -1.875 C 4.375 -2.039062 4.304688 -2.175781 4.171875 -2.28125 C 4.046875 -2.382812 3.882812 -2.46875 3.6875 -2.53125 C 3.488281 -2.601562 3.222656 -2.675781 2.890625 -2.75 C 2.367188 -2.875 1.941406 -3 1.609375 -3.125 C 1.285156 -3.25 1.003906 -3.445312 0.765625 -3.71875 C 0.523438 -3.988281 0.40625 -4.351562 0.40625 -4.8125 C 0.40625 -5.207031 0.507812 -5.5625 0.71875 -5.875 C 0.9375 -6.195312 1.257812 -6.453125 1.6875 -6.640625 C 2.125 -6.835938 2.65625 -6.9375 3.28125 -6.9375 C 3.71875 -6.9375 4.140625 -6.882812 4.546875 -6.78125 C 4.960938 -6.675781 5.328125 -6.523438 5.640625 -6.328125 L 5.15625 -5.125 C 4.53125 -5.488281 3.898438 -5.671875 3.265625 -5.671875 C 2.828125 -5.671875 2.5 -5.597656 2.28125 -5.453125 C 2.070312 -5.304688 1.96875 -5.117188 1.96875 -4.890625 C 1.96875 -4.648438 2.085938 -4.472656 2.328125 -4.359375 C 2.578125 -4.253906 2.953125 -4.144531 3.453125 -4.03125 C 3.972656 -3.90625 4.398438 -3.78125 4.734375 -3.65625 C 5.066406 -3.53125 5.347656 -3.332031 5.578125 -3.0625 C 5.816406 -2.800781 5.9375 -2.445312 5.9375 -2 C 5.9375 -1.601562 5.828125 -1.242188 5.609375 -0.921875 C 5.390625 -0.609375 5.0625 -0.359375 4.625 -0.171875 C 4.195312 0.015625 3.671875 0.109375 3.046875 0.109375 Z M 3.046875 0.109375 "/></g></g></g><g fill="#7f886b" fill-opacity="1"><g transform="translate(275.17877, 129.07499)"><g><path d="M 0.8125 -6.8125 L 2.390625 -6.8125 L 2.390625 0 L 0.8125 0 Z M 0.8125 -6.8125 "/></g></g></g><g fill="#7f886b" fill-opacity="1"><g transform="translate(281.67314, 129.07499)"><g><path d="M 5.40625 -3.515625 L 6.859375 -3.515625 L 6.859375 -0.75 C 6.484375 -0.46875 6.050781 -0.253906 5.5625 -0.109375 C 5.082031 0.0351562 4.59375 0.109375 4.09375 0.109375 C 3.382812 0.109375 2.75 -0.0351562 2.1875 -0.328125 C 1.625 -0.628906 1.179688 -1.046875 0.859375 -1.578125 C 0.535156 -2.117188 0.375 -2.726562 0.375 -3.40625 C 0.375 -4.082031 0.535156 -4.6875 0.859375 -5.21875 C 1.179688 -5.757812 1.628906 -6.179688 2.203125 -6.484375 C 2.773438 -6.785156 3.414062 -6.9375 4.125 -6.9375 C 4.71875 -6.9375 5.257812 -6.832031 5.75 -6.625 C 6.238281 -6.425781 6.648438 -6.132812 6.984375 -5.75 L 5.96875 -4.8125 C 5.476562 -5.332031 4.890625 -5.59375 4.203125 -5.59375 C 3.765625 -5.59375 3.378906 -5.5 3.046875 -5.3125 C 2.710938 -5.132812 2.445312 -4.878906 2.25 -4.546875 C 2.0625 -4.210938 1.96875 -3.832031 1.96875 -3.40625 C 1.96875 -2.988281 2.0625 -2.613281 2.25 -2.28125 C 2.445312 -1.945312 2.710938 -1.6875 3.046875 -1.5 C 3.378906 -1.3125 3.757812 -1.21875 4.1875 -1.21875 C 4.644531 -1.21875 5.050781 -1.316406 5.40625 -1.515625 Z M 5.40625 -3.515625 "/></g></g></g><g fill="#7f886b" fill-opacity="1"><g transform="translate(292.480827, 129.07499)"><g><path d="M 7.0625 -6.8125 L 7.0625 0 L 5.765625 0 L 2.359375 -4.140625 L 2.359375 0 L 0.8125 0 L 0.8125 -6.8125 L 2.109375 -6.8125 L 5.5 -2.671875 L 5.5 -6.8125 Z M 7.0625 -6.8125 "/></g></g></g></svg>